# xmcd
#
# Track frame offsets:
#	150
#	17315
#	31750
#	44442
#	63940
#	80970
#	98242
#	118895
#	137185
#	154320
#	173332
#	190637
#	208757
#	227835
#
# Disc length: 3356 seconds
#
# Revision: 3
# Processed by: cddbd v1.5.2PL0 Copyright (c) Steve Scherf et al.
# Submitted via: audiograbber 1.80.04
#
DISCID=b60d1a0e
DTITLE=Alcione - O Melhor de Alcione
DYEAR=1997
DGENRE=Samba
TTITLE0=Mar de Caminhos
TTITLE1=Falsa Consideração
TTITLE2=Suave é a Noite (Tender Is The Night)
TTITLE3=O Pior é Que Eu Gosto
TTITLE4=Pisa Na Fulô
TTITLE5=Autonomia
TTITLE6=Amor de Corpo e Alma
TTITLE7=Garoto Maroto
TTITLE8=Um Ser de Luz
TTITLE9=Meu Vício é Você
TTITLE10=Nem Morta
TTITLE11=Overjoyed
TTITLE12=Nao Dá Mais Pra Segurar (Explode Coração)
TTITLE13=Brasil de Oliveira da Silva do Samba
EXTD=
EXTT0=
EXTT1=
EXTT2=
EXTT3=
EXTT4=
EXTT5=
EXTT6=
EXTT7=
EXTT8=
EXTT9=
EXTT10=
EXTT11=
EXTT12=
EXTT13=
PLAYORDER=
